PathFileType	4	(X/Y/Z)	 s10c0401.trc
DataRate	CameraRate	NumFrames	NumMarkers	Units	OrigDataRate	OrigDataStartFrame	OrigNumFrames
200	200	5	50	mm	200	1751	2000
Frame#	Time	racr			lacr			c7			jug			rlel			rdr			llel			ldr			s2			lic			ric			lasi			rasi			rpsi			lpsi			rgt			lgt			rth1			rth2			rth3			rth4			rlfc			rmfc			rsh1			rsh2			rsh3			rsh4			rlmal			rmmal			rcal			rtoe			rmt5			lth1			lth2			lth4			lth3			llfc			lmfc			llmal			lmmal			lcal			lmt5			lsh1			lsh2			lsh3			lsh4			ltoe			SBIKE			LBIKE			RBIKE			
		X1	Y1	Z1	X2	Y2	Z2	X3	Y3	Z3	X4	Y4	Z4	X5	Y5	Z5	X6	Y6	Z6	X7	Y7	Z7	X8	Y8	Z8	X9	Y9	Z9	X10	Y10	Z10	X11	Y11	Z11	X12	Y12	Z12	X13	Y13	Z13	X14	Y14	Z14	X15	Y15	Z15	X16	Y16	Z16	X17	Y17	Z17	X18	Y18	Z18	X19	Y19	Z19	X20	Y20	Z20	X21	Y21	Z21	X22	Y22	Z22	X23	Y23	Z23	X24	Y24	Z24	X25	Y25	Z25	X26	Y26	Z26	X27	Y27	Z27	X28	Y28	Z28	X29	Y29	Z29	X30	Y30	Z30	X31	Y31	Z31	X32	Y32	Z32	X33	Y33	Z33	X34	Y34	Z34	X35	Y35	Z35	X36	Y36	Z36	X37	Y37	Z37	X38	Y38	Z38	X39	Y39	Z39	X40	Y40	Z40	X41	Y41	Z41	X42	Y42	Z42	X43	Y43	Z43	X44	Y44	Z44	X45	Y45	Z45	X46	Y46	Z46	X47	Y47	Z47	X48	Y48	Z48	X49	Y49	Z49	X50	Y50	Z50	
1751	8.7550	640.648634	1335.716909	-17.962048	685.076566	1325.390140	-306.224332	653.519966	1345.757492	-158.720682	635.809034	1199.555050	-168.975274	522.172871	1093.490062	69.123836	621.691714	910.986607	4.025338	569.276518	1105.377091	-455.935822	651.384003	910.252363	-386.352272	119.650505	1169.832046	-198.123330	279.002958	1154.071774	-354.397130	297.760787	1158.840210	-57.050481	294.822639	1065.571903	-320.715184	280.048147	1074.474242	-66.444558	168.050579	1217.812474	-142.958654	177.212145	1223.216350	-253.822007	165.232216	1066.006279	-12.841932	174.669845	1043.165762	-388.326955	238.116913	929.461380	6.601643	308.701381	875.956596	-5.945734	341.111944	796.932914	-13.981672	336.996200	900.341024	-11.725388	417.640808	704.329608	-36.061874	412.161196	699.205633	-150.597826	352.207853	607.335174	-7.494114	334.773872	521.585881	-24.015624	279.094414	455.622814	-26.680218	360.694338	513.485291	-52.084952	229.911911	365.783405	-41.918468	255.755307	383.540599	-122.057921	173.251187	346.517414	-90.184605	413.635885	311.096182	-79.289230	327.916914	289.365293	-19.972035	242.808684	928.983123	-404.206059	308.650275	873.598436	-392.600239	336.719173	894.761842	-382.085604	339.835661	790.771641	-389.278724	386.713314	688.643329	-372.090565	380.418465	676.388273	-252.341978	66.561342	481.340634	-384.480340	74.614655	468.661274	-305.097508	18.507053	511.888155	-338.427283	39.759914	334.209191	-396.106053	282.000068	627.290313	-408.580594	229.225179	560.618150	-394.685798	145.763723	525.866618	-396.669779	246.905040	542.399159	-366.445168	93.427383	268.404669	-336.928779	-204.366953	834.870054	-223.970444	-78.276967	81.915896	-423.648422	-102.682134	80.514117	-24.362196	
1752	8.7600	636.905852	1337.020749	-17.888198	686.328606	1326.204884	-306.894401	652.769076	1346.163369	-159.100014	636.300027	1200.454288	-170.796951	521.779912	1093.897132	68.056320	621.528960	910.714905	3.966575	570.566288	1105.267591	-457.127512	651.637029	910.135972	-386.662283	119.795626	1169.015007	-194.841344	277.751860	1153.406204	-353.023409	300.574049	1157.820288	-57.213144	293.622247	1065.229764	-319.471673	283.082182	1073.589529	-65.402277	169.636183	1216.515654	-140.200190	176.957314	1222.494624	-251.843956	168.091599	1063.953785	-10.240122	174.093981	1042.857949	-386.034424	240.485119	925.584796	7.224636	308.590835	869.656039	-6.482548	338.249919	789.624812	-15.215072	337.552976	893.005777	-12.983047	409.947873	693.933327	-38.518652	401.508798	687.357576	-152.356712	345.533772	597.346119	-8.821169	329.550029	511.345167	-25.059446	275.012706	444.259204	-27.525261	355.920232	503.788335	-52.389229	226.991608	354.612843	-42.027104	250.707911	370.909270	-123.539951	170.462259	335.325903	-90.376669	410.971468	300.338559	-79.480448	325.289003	278.359116	-20.229354	244.021272	930.539966	-402.928481	310.765116	876.270412	-391.567710	338.636067	897.853525	-381.347853	343.221041	793.924475	-388.215352	392.766626	693.329225	-371.175095	385.900283	682.190130	-250.096139	70.447447	491.240873	-383.809561	78.222236	479.308719	-303.437821	22.553015	522.567134	-337.770153	42.368816	344.736137	-396.076500	288.857102	632.215902	-406.466059	234.851575	566.773002	-392.819046	151.387082	533.492206	-395.495023	250.993039	548.300692	-363.714734	95.527000	278.456770	-336.791929	-204.445602	834.681828	-223.848137	-78.281599	81.908153	-423.650749	-102.670082	80.516966	-24.362293	
1753	8.7650	632.937802	1338.444101	-18.129448	687.242885	1327.082613	-307.818703	652.192219	1346.525938	-159.205910	632.908747	1200.832998	-170.450623	521.640491	1094.274892	67.266209	621.328077	910.487262	3.865372	571.918713	1105.121582	-458.180436	652.081683	910.232422	-386.808216	119.924248	1167.833712	-191.756503	276.711599	1152.685103	-351.656137	303.398859	1156.744920	-57.371775	292.391720	1064.865880	-318.325601	286.099372	1072.360061	-64.443170	170.231914	1215.227121	-137.431357	176.615260	1221.317935	-249.634442	171.289463	1061.250062	-8.248800	173.518433	1042.482514	-383.885941	242.708976	921.287783	7.812512	308.467664	863.104280	-7.135996	335.212480	782.023703	-16.590802	338.143843	885.381319	-14.265232	402.186514	684.235718	-41.074226	394.222575	677.115943	-153.005444	338.276119	589.018433	-9.981389	323.852659	502.605974	-25.844044	270.725834	434.709745	-27.887251	350.571544	495.208510	-52.808596	223.509484	343.654624	-42.265413	247.473696	359.413775	-124.253574	167.248263	324.563233	-90.556835	407.815812	289.813997	-78.993960	322.135910	267.754544	-20.391487	245.139191	931.875158	-401.660305	312.831349	878.755615	-390.497502	340.377656	900.775377	-380.341395	345.872435	796.460967	-386.450819	398.921806	697.919575	-370.188741	391.581684	687.600635	-247.938379	74.565001	501.587249	-382.916489	81.915636	488.820909	-302.969432	26.806179	533.108217	-337.159868	45.636910	355.240212	-395.802825	295.598449	637.454597	-404.890441	240.578653	572.864999	-391.048627	156.570235	540.984479	-394.029686	255.234713	553.802291	-359.909811	98.460172	288.638955	-336.637137	-204.323834	834.867344	-223.917965	-78.268431	81.890320	-423.648756	-102.660153	80.507538	-24.352130	
1754	8.7700	629.552070	1339.491163	-18.072015	688.130958	1328.032253	-308.750549	651.405286	1346.905539	-159.033942	631.706344	1200.828625	-169.332240	521.264926	1094.403964	66.374163	621.090154	910.159885	3.728424	573.338541	1104.859062	-459.131227	652.453905	910.941673	-388.071843	120.265176	1166.324804	-188.695350	275.615439	1151.925855	-350.349198	306.619183	1155.025997	-58.611082	291.116723	1064.490807	-317.148548	288.327099	1070.246153	-66.682038	171.171017	1213.616806	-134.720820	175.119146	1219.069270	-245.979684	174.420980	1058.059417	-6.486374	172.961783	1041.909739	-381.744112	244.103779	916.131128	7.846546	308.244272	856.190748	-7.871299	331.865066	774.333522	-18.054919	338.642981	877.455029	-15.349729	394.500691	675.412035	-43.808611	384.431546	666.746937	-154.623568	330.089671	581.169243	-11.336988	317.493081	494.364557	-26.506844	265.707786	425.312389	-28.647882	344.609880	487.024933	-53.261904	219.433029	333.265807	-42.453655	243.975902	348.585884	-124.809514	163.575829	314.262577	-90.856983	404.038009	279.172177	-79.393270	318.330329	257.333641	-20.744775	245.609521	932.952179	-400.093681	314.590506	880.896730	-388.685499	341.831753	903.110234	-378.201147	349.109541	799.259740	-385.360300	405.265323	702.387976	-369.118433	396.696392	692.713462	-246.377084	78.865397	511.669913	-382.027191	85.863696	498.683193	-302.034734	30.608402	543.205309	-336.442540	49.573661	365.611629	-395.461650	302.224470	642.958311	-403.497661	246.098214	579.300029	-389.298703	161.304854	548.431052	-392.393674	260.423850	560.211936	-357.843069	102.191950	298.617893	-336.279444	-204.302844	834.857010	-223.916943	-78.273408	81.885723	-423.624626	-102.651878	80.489463	-24.360001	
1755	8.7750	626.036895	1340.534228	-18.344023	688.990948	1329.109669	-309.727901	650.567169	1347.699132	-160.307439	630.295079	1201.170335	-169.310585	520.956870	1094.331154	65.609590	620.501371	909.748372	3.414272	574.782296	1104.670065	-460.040154	652.668692	911.027454	-388.294672	120.703528	1164.313350	-185.873383	274.551601	1151.088149	-349.055995	309.287320	1153.541483	-58.798182	289.685513	1064.139579	-315.906007	291.202210	1068.585132	-66.426013	172.542165	1211.441753	-132.125032	174.689064	1217.306088	-243.771803	177.963696	1054.528410	-4.686345	172.408620	1041.257843	-379.874274	245.704393	910.786817	8.092649	307.822165	848.982887	-8.764849	328.547052	766.399450	-19.610315	338.725367	869.229972	-16.865747	386.877245	667.618661	-46.695285	373.021999	657.635953	-157.131072	321.784045	573.335266	-12.947465	310.924041	486.266894	-27.164452	260.311287	416.204504	-29.444004	338.371990	479.020485	-53.826276	214.995730	323.431285	-42.662571	239.484164	338.019048	-125.350910	160.244227	303.654072	-92.002564	399.780664	268.681418	-79.589086	313.951648	247.257165	-21.026700	246.712262	933.862956	-398.929919	316.523061	882.992431	-387.304357	343.395556	905.763199	-376.756317	352.376661	802.043665	-384.114687	411.791714	706.859358	-367.870186	401.471928	697.360556	-245.280605	83.617557	522.064592	-381.235003	89.938830	508.600788	-301.160299	34.532793	553.278719	-335.786065	54.276717	375.988349	-395.187045	308.745328	648.776021	-402.138570	251.782211	586.059053	-387.810909	166.540876	556.255618	-391.057280	265.650776	566.858502	-356.030151	106.843296	309.012924	-336.117845	-204.407992	834.580800	-223.841076	-78.255296	81.866960	-423.643223	-102.665409	80.496093	-24.361677	
